<mxfile host="app.diagrams.net" modified="2024-04-29T20:44:35.617Z" agent="Mozilla/5.0 (Macintosh; Intel Mac OS X 10_15_7) AppleWebKit/537.36 (KHTML, like Gecko) Chrome/124.0.0.0 Safari/537.36" version="24.3.1" etag="bIY1DpYCXOu2kJ4sSS5a" type="github">
  <diagram name="Page-1" id="9s_VgViNMeHV7FSrBPHC">
    <mxGraphModel>
      <root>
        <mxCell id="0" />
        <mxCell id="1" parent="0" />
      </root>
    </mxGraphModel>
  </diagram>
</mxfile>
